# xmcd
#
# Track frame offsets:
#	150
#	12723
#	28564
#	40559
#	50301
#	60151
#	75433
#	82951
#	100051
#	114288
#	132138
#	145780
#	156475
#
# Disc length: 2149 seconds
#
# Revision: 1
# Processed by: cddbd v1.5.1PL2 Copyright (c) Steve Scherf et al.
# Submitted via: audiograbber 1.82.02
#
DISCID=9108630d
DTITLE=Great Northern Plains - Long Awaited CD
DYEAR=1900
DGENRE=Bluegrass
TTITLE0=Seeing Nellie Home
TTITLE1=Sing Me Back Home
TTITLE2=I Remember
TTITLE3=Country Roads
TTITLE4=Don't Feel Much Like Being Lonesome
TTITLE5=Dianna
TTITLE6=God That Never Fails
TTITLE7=Last Train From Poor Valley
TTITLE8=Little Maggie
TTITLE9=Wayfaring Stranger
TTITLE10=Two Little Boys
TTITLE11=Going To The Races
TTITLE12=Extra
EXTD=
EXTT0=
EXTT1=
EXTT2=
EXTT3=
EXTT4=
EXTT5=
EXTT6=
EXTT7=
EXTT8=
EXTT9=
EXTT10=
EXTT11=
EXTT12=
PLAYORDER=
